HIERARCHY
ROOT Hips
{
    OFFSET   0.000000   0.000000   0.000000
    CHANNELS 6 Xposition Yposition Zposition Zrotation Xrotation Yrotation
    JOINT Chest
    {
        OFFSET   0.000000   8.007240   0.000000
        CHANNELS 3 Zrotation Xrotation Yrotation
        JOINT Chest2
        {
            OFFSET   0.000000  22.077100   0.000000
            CHANNELS 3 Zrotation Xrotation Yrotation
            JOINT Neck
            {
                OFFSET   0.000000  23.254800   0.000000
                CHANNELS 3 Zrotation Xrotation Yrotation
                JOINT Head
                {
                    OFFSET   0.000000  14.370000   1.956600
                    CHANNELS 3 Zrotation Xrotation Yrotation
                    End Site
                    {
                        OFFSET   0.000000  19.566000   0.000000
                    }
                }
            }
            JOINT LeftCollar
            {
                OFFSET   3.911900  19.017000  -0.467064
                CHANNELS 3 Zrotation Xrotation Yrotation
                JOINT LeftShoulder
                {
                    OFFSET  10.383700   0.000000   0.000000
                    CHANNELS 3 Zrotation Xrotation Yrotation
                    JOINT LeftElbow
                    {
                        OFFSET  26.662100   0.001476   0.000517
                        CHANNELS 3 Zrotation Xrotation Yrotation
                        JOINT LeftWrist
                        {
                            OFFSET  28.869000  -0.000025  -0.000106
                            CHANNELS 3 Zrotation Xrotation Yrotation
                            JOINT LeftFinger0
                            {
                                OFFSET   2.044660  -2.323460   3.252850
                                CHANNELS 3 Zrotation Xrotation Yrotation
                                JOINT LeftFinger01
                                {
                                    OFFSET   3.088130   0.000000   0.000000
                                    CHANNELS 3 Zrotation Xrotation Yrotation
                                    JOINT LeftFinger02
                                    {
                                        OFFSET   2.639460   0.000000   0.000000
                                        CHANNELS 3 Zrotation Xrotation Yrotation
                                        End Site
                                        {
                                            OFFSET   2.582190   0.000000   0.000000
                                        }
                                    }
                                }
                            }
                            JOINT LeftFinger1
                            {
                                OFFSET   8.364480   0.000000   3.252850
                                CHANNELS 3 Zrotation Xrotation Yrotation
                                JOINT LeftFinger11
                                {
                                    OFFSET   4.646930   0.000000   0.000000
                                    CHANNELS 3 Zrotation Xrotation Yrotation
                                    JOINT LeftFinger12
                                    {
                                        OFFSET   2.323460   0.000000   0.000000
                                        CHANNELS 3 Zrotation Xrotation Yrotation
                                        End Site
                                        {
                                            OFFSET   2.273050   0.000000   0.000000
                                        }
                                    }
                                }
                            }
                            JOINT LeftFinger2
                            {
                                OFFSET   8.364490   0.000015   1.078090
                                CHANNELS 3 Zrotation Xrotation Yrotation
                                JOINT LeftFinger21
                                {
                                    OFFSET   5.111620   0.000000   0.000000
                                    CHANNELS 3 Zrotation Xrotation Yrotation
                                    JOINT LeftFinger22
                                    {
                                        OFFSET   2.788160   0.000016   0.000000
                                        CHANNELS 3 Zrotation Xrotation Yrotation
                                        End Site
                                        {
                                            OFFSET   2.727660   0.000000   0.000000
                                        }
                                    }
                                }
                            }
                            JOINT LeftFinger3
                            {
                                OFFSET   7.899780   0.000017  -1.078090
                                CHANNELS 3 Zrotation Xrotation Yrotation
                                JOINT LeftFinger31
                                {
                                    OFFSET   4.646930   0.000000   0.000000
                                    CHANNELS 3 Zrotation Xrotation Yrotation
                                    JOINT LeftFinger32
                                    {
                                        OFFSET   2.323470   0.000000   0.000000
                                        CHANNELS 3 Zrotation Xrotation Yrotation
                                        End Site
                                        {
                                            OFFSET   2.273050   0.000000   0.000000
                                        }
                                    }
                                }
                            }
                            JOINT LeftFinger4
                            {
                                OFFSET   7.435090   0.000000  -3.252850
                                CHANNELS 3 Zrotation Xrotation Yrotation
                                JOINT LeftFinger41
                                {
                                    OFFSET   3.717550   0.000000   0.000000
                                    CHANNELS 3 Zrotation Xrotation Yrotation
                                    JOINT LeftFinger42
                                    {
                                        OFFSET   1.858770   0.000000   0.000000
                                        CHANNELS 3 Zrotation Xrotation Yrotation
                                        End Site
                                        {
                                            OFFSET   1.818440   0.000000   0.000000
                                        }
                                    }
                                }
                            }
                        }
                    }
                }
            }
            JOINT RightCollar
            {
                OFFSET  -3.911900  19.017000  -0.467063
                CHANNELS 3 Zrotation Xrotation Yrotation
                JOINT RightShoulder
                {
                    OFFSET -10.383700   0.000019   0.000000
                    CHANNELS 3 Zrotation Xrotation Yrotation
                    JOINT RightElbow
                    {
                        OFFSET -26.662100   0.001175   0.000102
                        CHANNELS 3 Zrotation Xrotation Yrotation
                        JOINT RightWrist
                        {
                            OFFSET -28.869000   0.000016  -0.000079
                            CHANNELS 3 Zrotation Xrotation Yrotation
                            JOINT RightFinger0
                            {
                                OFFSET  -2.044660  -2.323490   3.252850
                                CHANNELS 3 Zrotation Xrotation Yrotation
                                JOINT RightFinger01
                                {
                                    OFFSET  -3.088140   0.000000   0.000000
                                    CHANNELS 3 Zrotation Xrotation Yrotation
                                    JOINT RightFinger02
                                    {
                                        OFFSET  -2.639460   0.000000   0.000000
                                        CHANNELS 3 Zrotation Xrotation Yrotation
                                        End Site
                                        {
                                            OFFSET  -2.582190   0.000000   0.000000
                                        }
                                    }
                                }
                            }
                            JOINT RightFinger1
                            {
                                OFFSET  -8.364480   0.000000   3.252850
                                CHANNELS 3 Zrotation Xrotation Yrotation
                                JOINT RightFinger11
                                {
                                    OFFSET  -4.646930   0.000000   0.000000
                                    CHANNELS 3 Zrotation Xrotation Yrotation
                                    JOINT RightFinger12
                                    {
                                        OFFSET  -2.323470   0.000000   0.000000
                                        CHANNELS 3 Zrotation Xrotation Yrotation
                                        End Site
                                        {
                                            OFFSET  -2.273050   0.000000   0.000000
                                        }
                                    }
                                }
                            }
                            JOINT RightFinger2
                            {
                                OFFSET  -8.364480   0.000000   1.078090
                                CHANNELS 3 Zrotation Xrotation Yrotation
                                JOINT RightFinger21
                                {
                                    OFFSET  -5.111620   0.000000   0.000000
                                    CHANNELS 3 Zrotation Xrotation Yrotation
                                    JOINT RightFinger22
                                    {
                                        OFFSET  -2.788160   0.000000   0.000000
                                        CHANNELS 3 Zrotation Xrotation Yrotation
                                        End Site
                                        {
                                            OFFSET  -2.727660   0.000000   0.000000
                                        }
                                    }
                                }
                            }
                            JOINT RightFinger3
                            {
                                OFFSET  -7.899780   0.000000  -1.078090
                                CHANNELS 3 Zrotation Xrotation Yrotation
                                JOINT RightFinger31
                                {
                                    OFFSET  -4.646930   0.000000   0.000000
                                    CHANNELS 3 Zrotation Xrotation Yrotation
                                    JOINT RightFinger32
                                    {
                                        OFFSET  -2.323470   0.000000   0.000000
                                        CHANNELS 3 Zrotation Xrotation Yrotation
                                        End Site
                                        {
                                            OFFSET  -2.273050   0.000000   0.000000
                                        }
                                    }
                                }
                            }
                            JOINT RightFinger4
                            {
                                OFFSET  -7.435090   0.000000  -3.252850
                                CHANNELS 3 Zrotation Xrotation Yrotation
                                JOINT RightFinger41
                                {
                                    OFFSET  -3.717550   0.000000   0.000000
                                    CHANNELS 3 Zrotation Xrotation Yrotation
                                    JOINT RightFinger42
                                    {
                                        OFFSET  -1.858770   0.000000   0.000000
                                        CHANNELS 3 Zrotation Xrotation Yrotation
                                        End Site
                                        {
                                            OFFSET  -1.818440   0.000000   0.000000
                                        }
                                    }
                                }
                            }
                        }
                    }
                }
            }
        }
    }
    JOINT LeftHip
    {
        OFFSET   9.783040   0.000000   0.000000
        CHANNELS 3 Zrotation Xrotation Yrotation
        JOINT LeftKnee
        {
            OFFSET   0.000032 -41.789100  -0.002222
            CHANNELS 3 Zrotation Xrotation Yrotation
            JOINT LeftAnkle
            {
                OFFSET   0.000087 -41.133200  -0.000135
                CHANNELS 3 Zrotation Xrotation Yrotation
                JOINT LeftToe
                {
                    OFFSET   0.000000  -6.358960  14.674500
                    CHANNELS 3 Zrotation Xrotation Yrotation
                    End Site
                    {
                        OFFSET   0.000000   0.000000   3.913200
                    }
                }
            }
        }
    }
    JOINT RightHip
    {
        OFFSET  -9.783040   0.000000   0.000000
        CHANNELS 3 Zrotation Xrotation Yrotation
        JOINT RightKnee
        {
            OFFSET   0.000047 -41.789100  -0.000896
            CHANNELS 3 Zrotation Xrotation Yrotation
            JOINT RightAnkle
            {
                OFFSET  -0.000117 -41.133300  -0.000248
                CHANNELS 3 Zrotation Xrotation Yrotation
                JOINT RightToe
                {
                    OFFSET   0.000000  -6.358970  14.674500
                    CHANNELS 3 Zrotation Xrotation Yrotation
                    End Site
                    {
                        OFFSET   0.000000   0.000000   3.913200
                    }
                }
            }
        }
    }
}
MOTION
Frames: 5
Frame Time:   0.016667
 -4.853250  88.773800  -1.986990  -5.948640 -19.727200  -9.573700   4.979540  15.525200  -4.780150  12.021000  30.478200 -11.659200   6.579280  -0.507833   0.057680  10.811300  -0.989016   6.798370  -2.239780  -7.885420  -2.447390 -16.828900  41.042000 -103.032000   2.536810   4.963630 -94.299400 -13.347300 -21.747600  -2.265070  42.193200  32.724300 -72.885800   8.565630   0.005710  -0.000864   9.282820   0.002883   0.000458 -37.920500   2.115510  -2.712690 -31.066800  -0.003419   0.000376 -21.746700   0.003268  -0.007161 -43.651200  -3.585120   3.743840 -54.449800  -0.002388   0.000136 -38.351700   0.001173  -0.001643 -56.417900  -6.215450   4.111490 -56.641200   0.001534   0.001424 -42.480900   0.007788  -0.000821 -57.342300  -7.582470   4.834600 -86.494200   0.001971  -0.001976 -57.605100   0.004846  -0.002062  -7.748090 -17.639800   9.986270  56.085200  49.604500  51.301500  -2.715440  -3.669520 107.117000  18.522300  21.982100   2.267460 -44.267700  31.103900  65.097600  20.772700   0.001220  -0.000415   5.386370  -0.001306   0.012224  33.682400   3.399750   5.084210  27.681900   0.000393  -0.000547  19.377300   0.000941  -0.001041  33.676900  -3.638000  -5.436700  50.774700  -0.000624  -0.004307  33.816000   0.002019  -0.002955  38.607500  -4.090130  -5.104200  54.253500   0.000908  -0.002295  36.903300   0.002617  -0.002224  47.920400  -5.435570  -4.889250  72.228400   0.000144  -0.002927  48.104200   0.000626  -0.005652   6.180100  16.123100   3.971060   3.149070  17.217500  12.439300  -6.118630 -10.220400   2.689800   0.000000   0.000000  -0.000000   6.333070  16.827400  -2.725480   0.674702   7.168030  -4.783540  -3.577700  -3.919920   0.391109  -0.000000   0.000000   0.000000
 -4.837430  88.773800  -1.985110  -5.942110 -19.695100  -9.579770   4.961590  15.503100  -4.815270  11.988800  30.432200 -11.723200   6.552080  -0.485036   0.055118  10.766300  -0.945082   6.947440  -2.271470  -7.826720  -2.447170 -16.843100  41.000200 -102.971000   2.404800   5.045610 -94.328000 -13.390500 -21.693000  -2.250690  42.161000  32.725700 -72.902900   8.513600   0.005791  -0.000836   9.256820   0.002911   0.000366 -37.852200   2.089390  -2.691970 -31.010200  -0.003549   0.000356 -21.707100   0.003276  -0.007335 -43.412800  -3.585220   3.777030 -54.434500  -0.002529  -0.000031 -38.282200   0.001204  -0.001660 -56.321100  -6.216950   4.127270 -56.588600   0.001511   0.001448 -42.430900   0.007926  -0.000956 -57.257100  -7.523790   4.829250 -86.364200   0.001915  -0.002145 -57.518500   0.004932  -0.002219  -7.721020 -17.606100  10.028200  56.100500  49.639400  51.350900  -2.805690  -3.669970 107.073000  18.465900  21.846900   2.362360 -44.155800  30.991500  64.942800  20.853800   0.001234  -0.000401   5.426900  -0.001307   0.011958  33.631100   3.403600   5.095720  27.641800   0.000378  -0.000578  19.349300   0.000940  -0.001057  33.671500  -3.632600  -5.434380  50.765700  -0.000555  -0.004275  33.810000   0.001964  -0.002956  38.572500  -4.074260  -5.105940  54.251700   0.000846  -0.002408  36.892300   0.002518  -0.002344  47.897800  -5.254860  -4.728150  72.168500   0.000029  -0.003132  48.064300   0.000667  -0.005782   6.152850  16.126100   3.948950   3.148250  17.168400  12.473100  -6.115860 -10.195600   2.704270  -0.000000   0.000000   0.000000   6.306380  16.805500  -2.734910   0.697990   7.156820  -4.803440  -3.575120  -3.930350   0.436635   0.000000   0.000000   0.000000
 -4.816830  88.773900  -1.984810  -5.927890 -19.655700  -9.579040   4.939540  15.474400  -4.847740  11.945800  30.373900 -11.779100   6.515390  -0.463452   0.053000  10.705700  -0.903538   7.121150  -2.301630  -7.768430  -2.447680 -16.851700  40.944700 -102.888000   2.305850   5.098290 -94.346400 -13.475400 -21.654300  -2.241240  42.148100  32.740100 -72.941800   8.412750   0.005876  -0.000808   9.206410   0.002938   0.000270 -37.687100   2.076760  -2.684970 -30.874700  -0.003679   0.000333 -21.612300   0.003284  -0.007504 -42.758100  -3.584990   3.865760 -54.419200  -0.002674  -0.000203 -38.109100   0.001229  -0.001678 -56.066400  -6.227890   4.173970 -56.317300   0.001486   0.001470 -42.231700   0.008063  -0.001092 -57.030900  -7.482830   4.827880 -86.020100   0.001863  -0.002322 -57.289400   0.005019  -0.002377  -7.695750 -17.548600  10.065400  56.115800  49.674400  51.400400  -2.961970  -3.667630 107.029000  18.408700  21.626200   2.458880 -44.095800  30.929000  64.861400  20.894300   0.001242  -0.000387   5.447140  -0.001308   0.010091  33.490800   3.417880   5.146680  27.527300   0.000363  -0.000608  19.269100   0.000938  -0.001074  33.629000  -3.628480  -5.434020  50.702600  -0.000481  -0.004246  33.767900   0.001909  -0.002956  38.318800  -4.061340  -5.118740  54.238800   0.000784  -0.002516  36.815100   0.002419  -0.002458  47.738100  -5.040790  -4.564820  71.908600  -0.000085  -0.003335  47.891100   0.000706  -0.005912   6.122440  16.133900   3.932090   3.148920  17.095900  12.504900  -6.112960 -10.160800   2.713330  -0.000000   0.000000  -0.000000   6.273510  16.777400  -2.750860   0.724768   7.141030  -4.839710  -3.571350  -3.941630   0.493001   0.000000   0.000000  -0.000000
 -4.789690  88.775700  -1.992940  -5.905710 -19.607000  -9.567920   4.914500  15.437800  -4.875170  11.892100  30.301300 -11.819400   6.463840  -0.445615   0.051637  10.621200  -0.869177   7.302160  -2.316840  -7.711680  -2.453980 -16.799300  40.851400 -102.832000   2.272360   5.069730 -94.347000 -13.597200 -21.714600  -2.280360  42.195300  32.828800 -73.039800   8.325100   0.005974  -0.000824   9.162570   0.002965   0.000176 -37.325000   2.088020  -2.726110 -30.579100  -0.003805   0.000301 -21.405400   0.003283  -0.007666 -41.498100  -3.573470   4.026850 -54.520600  -0.002839  -0.000379 -37.834000   0.001249  -0.001697 -55.787300  -6.264530   4.238770 -55.636500   0.001472   0.001488 -41.814200   0.008197  -0.001226 -56.669200  -7.499100   4.890680 -85.483900   0.001822  -0.002513 -56.932300   0.005101  -0.002534  -7.666250 -17.479600  10.086900  56.059500  49.617700  51.430500  -2.988920  -3.630980 107.083000  18.359800  21.422500   2.554460 -44.196500  31.051900  65.026200  20.868900   0.001255  -0.000466   5.434450  -0.001313   0.004398  33.226200   3.555830   5.414000  27.320700   0.000348  -0.000638  19.124400   0.000938  -0.001096  33.423300  -3.718760  -5.631570  50.407300  -0.000396  -0.004228  33.571300   0.001845  -0.002952  37.641000  -4.125150  -5.364240  54.222400   0.000713  -0.002608  36.621200   0.002325  -0.002561  47.375700  -4.917450  -4.514070  71.354000  -0.000199  -0.003539  47.521700   0.000739  -0.006032   6.091140  16.147000   3.928600   3.147770  16.993600  12.530000  -6.110660 -10.117600   2.710230   0.000000   0.000000   0.000000   6.236310  16.739600  -2.781830   0.753361   7.123850  -4.878150  -3.566840  -3.954070   0.562335  -0.000000   0.000000   0.000000
 -4.763240  88.782100  -2.005150  -5.879930 -19.552500  -9.551810   4.885790  15.397600  -4.888580  11.828200  30.223000 -11.833200   6.408200  -0.436674   0.051097  10.529800  -0.851787   7.490840  -2.338020  -7.680320  -2.497260 -16.714300  40.739700 -102.757000   2.230130   4.995100 -94.349000 -13.796400 -21.853800  -2.395510  42.237800  32.924300 -73.153400   8.174940   0.006075  -0.000840   9.087470   0.002992   0.000084 -36.841300   2.128940  -2.833480 -30.185900  -0.003929   0.000265 -21.130200   0.003281  -0.007824 -39.924400  -3.556050   4.237640 -54.622000  -0.003012  -0.000556 -37.435300   0.001268  -0.001719 -55.154700  -6.291010   4.358770 -54.890700   0.001461   0.001501 -41.287200   0.008330  -0.001360 -56.126300  -7.528930   5.024870 -84.685900   0.001784  -0.002716 -56.400800   0.005185  -0.002691  -7.640870 -17.407200  10.093100  55.996900  49.555800  51.469100  -3.002240  -3.579060 107.163000  18.269600  21.158900   2.691560 -44.252300  31.182500  65.242300  20.843500   0.001270  -0.000546   5.421750  -0.001318  -0.002653  32.914600   3.782210   5.820380  27.086200   0.000335  -0.000670  18.960300   0.000939  -0.001117  33.105100  -3.808940  -5.829160  49.945600  -0.000308  -0.004211  33.263800   0.001781  -0.002947  36.801100  -4.188910  -5.598750  54.151400   0.000641  -0.002692  36.333700   0.002231  -0.002658  46.899000  -4.792320  -4.475950  70.628000  -0.000311  -0.003739  47.038200   0.000770  -0.006148   6.073260  16.162800   3.928380   3.141130  16.872400  12.557700  -6.108740 -10.065700   2.690620  -0.000000   0.000000  -0.000000   6.198480  16.695600  -2.811930   0.780488   7.106280  -4.914140  -3.562470  -3.964450   0.626989  -0.000000   0.000000   0.000000
